<?xml version="1.0" encoding="UTF-8"?>
<!-- BASELINE: locked hero topology - run ./docs/diagrams/render-end-to-end.sh after edits -->
<svg xmlns="http://www.w3.org/2000/svg" viewBox="0 0 1600 1000" font-family="Segoe UI, Helvetica, Arial, sans-serif">
  <defs>
    <marker id="arrow-gray-border-up" markerWidth="8" markerHeight="8" refX="4" refY="8" orient="auto" markerUnits="userSpaceOnUse">
      <path d="M0,8 L4,0 L8,8 Z" fill="#475569"/>
    </marker>
    <marker id="arrow-gray-border-down" markerWidth="8" markerHeight="8" refX="4" refY="0" orient="auto" markerUnits="userSpaceOnUse">
      <path d="M0,0 L4,8 L8,0 Z" fill="#475569"/>
    </marker>
    <marker id="arrow-red-border-left" markerWidth="8" markerHeight="8" refX="8" refY="4" orient="auto" markerUnits="userSpaceOnUse">
      <path d="M8,0 L0,4 L8,8 Z" fill="#dc2626"/>
    </marker>
    <marker id="arrow-red-border-right" markerWidth="8" markerHeight="8" refX="0" refY="4" orient="auto" markerUnits="userSpaceOnUse">
      <path d="M0,0 L8,4 L0,8 Z" fill="#dc2626"/>
    </marker>
    <marker id="arrow-blue-border-left" markerWidth="8" markerHeight="8" refX="8" refY="4" orient="auto" markerUnits="userSpaceOnUse">
      <path d="M8,0 L0,4 L8,8 Z" fill="#2563eb"/>
    </marker>
    <marker id="arrow-blue-border-right" markerWidth="8" markerHeight="8" refX="0" refY="4" orient="auto" markerUnits="userSpaceOnUse">
      <path d="M0,0 L8,4 L0,8 Z" fill="#2563eb"/>
    </marker>
    <marker id="arrow-purple-border-left" markerWidth="8" markerHeight="8" refX="8" refY="4" orient="auto" markerUnits="userSpaceOnUse">
      <path d="M8,0 L0,4 L8,8 Z" fill="#7c3aed"/>
    </marker>
    <marker id="arrow-purple-border-right" markerWidth="8" markerHeight="8" refX="0" refY="4" orient="auto" markerUnits="userSpaceOnUse">
      <path d="M0,0 L8,4 L0,8 Z" fill="#7c3aed"/>
    </marker>
    <filter id="shadow" x="-2%" y="-2%" width="104%" height="104%">
      <feDropShadow dx="0" dy="2" stdDeviation="4" flood-opacity="0.12"/>
    </filter>
  </defs>

  <rect width="1600" height="1000" fill="#fafafa"/>
  <text x="800" y="42" text-anchor="middle" font-size="32" font-weight="700" fill="#0f172a">End-to-end topology - two AZs, three proof layers</text>
  <text x="800" y="72" text-anchor="middle" font-size="18" fill="#64748b">Site 0 (10.0.0.0/16) and Site 1 (10.1.0.0/16) | detail in docs/network-diagram.md</text>

  <g transform="translate(80,170)">
    <rect x="0" y="0" width="1440" height="56" rx="10" fill="#ffffff" stroke="#e2e8f0"/>
    <g font-size="16" font-weight="600">
      <rect x="24" y="16" width="18" height="18" fill="#dbeafe" stroke="#2563eb"/><text x="50" y="30" fill="#1e293b">VPC</text>
      <rect x="120" y="16" width="18" height="18" fill="#ede9fe" stroke="#7c3aed"/><text x="146" y="30" fill="#1e293b">Transport /28</text>
      <rect x="300" y="16" width="18" height="18" fill="#dcfce7" stroke="#16a34a"/><text x="326" y="30" fill="#1e293b">Site 0 lab</text>
      <rect x="460" y="16" width="18" height="18" fill="#ffedd5" stroke="#ea580c"/><text x="486" y="30" fill="#1e293b">Site 1 lab</text>
      <rect x="620" y="16" width="18" height="18" fill="#fee2e2" stroke="#dc2626"/><text x="646" y="30" fill="#1e293b">GRE gre-peer</text>
      <rect x="790" y="16" width="18" height="18" fill="#ccfbf1" stroke="#0d9488"/><text x="816" y="30" fill="#1e293b">Hyper-V vSwitch</text>
      <rect x="980" y="16" width="18" height="18" fill="#f3f4f6" stroke="#6b7280"/><text x="1006" y="30" fill="#1e293b">Mgmt / NAT nic0</text>
    </g>
  </g>

  <!-- VPC fabric underlay (172.31.0.0/16) - ENI layers only, not nested lab stack -->
  <rect x="45" y="318" width="1510" height="98" rx="12" fill="#dbeafe" fill-opacity="0.35" stroke="#2563eb" stroke-width="2" stroke-dasharray="10 6"/>
  <rect x="45" y="802" width="1510" height="118" rx="12" fill="#dbeafe" fill-opacity="0.35" stroke="#2563eb" stroke-width="2" stroke-dasharray="10 6"/>
  <line x1="45" y1="416" x2="45" y2="802" stroke="#2563eb" stroke-width="2" stroke-dasharray="10 6"/>
  <line x1="1555" y1="416" x2="1555" y2="802" stroke="#2563eb" stroke-width="2" stroke-dasharray="10 6"/>
  <rect x="682" y="324" width="236" height="54" rx="4" fill="#fafafa" fill-opacity="0.95"/>
  <text x="800" y="342" text-anchor="middle" font-size="13" font-weight="700" fill="#1d4ed8">VPC fabric</text>
  <text x="800" y="358" text-anchor="middle" font-size="13" font-weight="700" fill="#1d4ed8">172.31.0.0/16</text>
  <text x="800" y="374" text-anchor="middle" font-size="12" font-weight="600" fill="#1d4ed8">primary ENIs</text>
  <text x="800" y="388" text-anchor="middle" font-size="12" font-weight="600" fill="#1d4ed8">transport ENIs</text>

  <!-- L1 label + GRE box centered in column gap (680-920) -->
  <rect x="682" y="378" width="236" height="30" rx="4" fill="#fafafa"/>
  <text x="800" y="392" text-anchor="middle" font-size="14" font-weight="700" fill="#b91c1c">L1 - lab supernets</text>
  <text x="800" y="406" text-anchor="middle" font-size="14" font-weight="700" fill="#b91c1c">linked via GRE</text>

  <g transform="translate(690, 412)">
    <rect x="0" y="0" width="220" height="78" rx="14" fill="#fee2e2" stroke="#dc2626" stroke-width="3" stroke-dasharray="10 6"/>
    <text x="110" y="30" text-anchor="middle" font-size="22" font-weight="700" fill="#991b1b">gre-peer (L1)</text>
    <text x="110" y="54" text-anchor="middle" font-size="14" fill="#7f1d1d">10.0.0.0/16 &lt;-&gt; 10.1.0.0/16</text>
    <text x="110" y="72" text-anchor="middle" font-size="13" fill="#991b1b">outer: transport IPs</text>
  </g>

  <!-- L2 label + inner ping box centered in column gap (680-920) -->
  <rect x="682" y="694" width="236" height="30" rx="4" fill="#fafafa"/>
  <text x="800" y="708" text-anchor="middle" font-size="14" font-weight="700" fill="#b91c1c">L2 - inner Ubuntu</text>
  <text x="800" y="722" text-anchor="middle" font-size="14" font-weight="700" fill="#b91c1c">cross-AZ ping</text>

  <g transform="translate(690, 728)">
    <rect x="0" y="0" width="220" height="78" rx="14" fill="#fef2f2" stroke="#dc2626" stroke-width="3" stroke-dasharray="10 6"/>
    <text x="110" y="28" text-anchor="middle" font-size="20" font-weight="700" fill="#991b1b">inner .20 (L2)</text>
    <text x="110" y="50" text-anchor="middle" font-size="14" fill="#7f1d1d">10.0.1.20 &lt;-&gt; 10.1.1.20</text>
    <text x="110" y="68" text-anchor="middle" font-size="13" fill="#991b1b">via GRE + Hyper-V</text>
  </g>

  <!-- Site 0 -->
  <g transform="translate(60,250)" filter="url(#shadow)">
    <rect x="0" y="0" width="620" height="620" rx="16" fill="#ffffff" stroke="#16a34a" stroke-width="3"/>
    <text x="310" y="38" text-anchor="middle" font-size="26" font-weight="700" fill="#166534">AZ A - Site 0</text>
    <text x="310" y="64" text-anchor="middle" font-size="18" fill="#64748b">nested-virt-s0-01 | lab 10.0.0.0/16</text>

    <rect x="30" y="82" width="560" height="74" rx="10" fill="#eff6ff" stroke="#2563eb" stroke-width="2"/>
    <text x="310" y="112" text-anchor="middle" font-size="20" font-weight="600">nic0 (primary ENI)</text>
    <text x="310" y="138" text-anchor="middle" font-size="16" fill="#64748b">172.31.0.10 | SSH / SSM / NAT</text>

    <rect x="30" y="172" width="560" height="408" rx="12" fill="#f0fdf4" stroke="#16a34a" stroke-width="2"/>
    <text x="310" y="204" text-anchor="middle" font-size="22" font-weight="700" fill="#166534">c7i.metal-48xl | Amazon Linux 2023</text>

    <rect x="60" y="224" width="500" height="58" rx="8" fill="#dcfce7" stroke="#16a34a"/>
    <text x="310" y="252" text-anchor="middle" font-size="19" font-weight="600">br-default | 10.0.1.1/24</text>
    <text x="310" y="272" text-anchor="middle" font-size="15" fill="#64748b">dnsmasq | gre-peer endpoint</text>

    <rect x="100" y="300" width="420" height="78" rx="8" fill="#ffffff" stroke="#64748b" stroke-width="2"/>
    <text x="310" y="330" text-anchor="middle" font-size="19" font-weight="600">KVM guest: Windows Server 2022</text>
    <text x="310" y="354" text-anchor="middle" font-size="16" fill="#64748b">10.0.1.10 | MAC 52:54:00:10:00:10</text>
    <text x="310" y="372" text-anchor="middle" font-size="14" fill="#94a3b8">libvirt domain win-hv-nested (site 0 only)</text>

    <rect x="140" y="396" width="340" height="58" rx="8" fill="#ccfbf1" stroke="#0d9488" stroke-width="2"/>
    <text x="310" y="430" text-anchor="middle" font-size="19" font-weight="600">Hyper-V vSwitch NestedVirt-Lab</text>

    <rect x="180" y="472" width="260" height="74" rx="8" fill="#dcfce7" stroke="#16a34a" stroke-width="2"/>
    <text x="310" y="502" text-anchor="middle" font-size="19" font-weight="700">Hyper-V guest: Ubuntu 24.04</text>
    <text x="310" y="526" text-anchor="middle" font-size="16" fill="#64748b">10.0.1.20 | MAC 52:54:00:20:00:20</text>

    <rect x="60" y="562" width="500" height="62" rx="8" fill="#ede9fe" stroke="#7c3aed"/>
    <text x="310" y="592" text-anchor="middle" font-size="19" font-weight="600">nic1 (transport ENI /28)</text>
    <text x="310" y="616" text-anchor="middle" font-size="16" fill="#64748b">172.31.48.10 | GRE outer header src</text>

    <line x1="310" y1="290" x2="310" y2="298" stroke="#475569" stroke-width="2" marker-start="url(#arrow-gray-border-up)" marker-end="url(#arrow-gray-border-down)"/>
    <line x1="310" y1="386" x2="310" y2="394" stroke="#475569" stroke-width="2" marker-start="url(#arrow-gray-border-up)" marker-end="url(#arrow-gray-border-down)"/>
    <line x1="310" y1="462" x2="310" y2="470" stroke="#475569" stroke-width="2" marker-start="url(#arrow-gray-border-up)" marker-end="url(#arrow-gray-border-down)"/>
  </g>

  <!-- Site 1 -->
  <g transform="translate(920,250)" filter="url(#shadow)">
    <rect x="0" y="0" width="620" height="620" rx="16" fill="#ffffff" stroke="#ea580c" stroke-width="3"/>
    <text x="310" y="38" text-anchor="middle" font-size="26" font-weight="700" fill="#9a3412">AZ B - Site 1</text>
    <text x="310" y="64" text-anchor="middle" font-size="18" fill="#64748b">nested-virt-s1-01 | lab 10.1.0.0/16</text>

    <rect x="30" y="82" width="560" height="74" rx="10" fill="#eff6ff" stroke="#2563eb" stroke-width="2"/>
    <text x="310" y="112" text-anchor="middle" font-size="20" font-weight="600">nic0 (primary ENI)</text>
    <text x="310" y="138" text-anchor="middle" font-size="16" fill="#64748b">172.31.0.11 | SSH / SSM / NAT</text>

    <rect x="30" y="172" width="560" height="408" rx="12" fill="#fff7ed" stroke="#ea580c" stroke-width="2"/>
    <text x="310" y="204" text-anchor="middle" font-size="22" font-weight="700" fill="#9a3412">c7i.metal-48xl | Amazon Linux 2023</text>

    <rect x="60" y="224" width="500" height="58" rx="8" fill="#ffedd5" stroke="#ea580c"/>
    <text x="310" y="252" text-anchor="middle" font-size="19" font-weight="600">br-default | 10.1.1.1/24</text>
    <text x="310" y="272" text-anchor="middle" font-size="15" fill="#64748b">dnsmasq | gre-peer endpoint</text>

    <rect x="100" y="300" width="420" height="78" rx="8" fill="#ffffff" stroke="#64748b" stroke-width="2"/>
    <text x="310" y="330" text-anchor="middle" font-size="19" font-weight="600">KVM guest: Windows Server 2022</text>
    <text x="310" y="354" text-anchor="middle" font-size="16" fill="#64748b">10.1.1.10 | MAC 52:54:00:10:01:10</text>
    <text x="310" y="372" text-anchor="middle" font-size="14" fill="#94a3b8">libvirt domain win-hv-nested (site 1 only)</text>

    <rect x="140" y="396" width="340" height="58" rx="8" fill="#ccfbf1" stroke="#0d9488" stroke-width="2"/>
    <text x="310" y="430" text-anchor="middle" font-size="19" font-weight="600">Hyper-V vSwitch NestedVirt-Lab</text>

    <rect x="180" y="472" width="260" height="74" rx="8" fill="#ffedd5" stroke="#ea580c" stroke-width="2"/>
    <text x="310" y="502" text-anchor="middle" font-size="19" font-weight="700">Hyper-V guest: Ubuntu 24.04</text>
    <text x="310" y="526" text-anchor="middle" font-size="16" fill="#64748b">10.1.1.20 | MAC 52:54:00:20:01:20</text>

    <rect x="60" y="562" width="500" height="62" rx="8" fill="#ede9fe" stroke="#7c3aed"/>
    <text x="310" y="592" text-anchor="middle" font-size="19" font-weight="600">nic1 (transport ENI /28)</text>
    <text x="310" y="616" text-anchor="middle" font-size="16" fill="#64748b">172.31.48.26 | GRE outer header src</text>

    <line x1="310" y1="290" x2="310" y2="298" stroke="#475569" stroke-width="2" marker-start="url(#arrow-gray-border-up)" marker-end="url(#arrow-gray-border-down)"/>
    <line x1="310" y1="386" x2="310" y2="394" stroke="#475569" stroke-width="2" marker-start="url(#arrow-gray-border-up)" marker-end="url(#arrow-gray-border-down)"/>
    <line x1="310" y1="462" x2="310" y2="470" stroke="#475569" stroke-width="2" marker-start="url(#arrow-gray-border-up)" marker-end="url(#arrow-gray-border-down)"/>
  </g>

  <!-- VPC mgmt plane: nic0 across both sites -->
  <line x1="658" y1="369" x2="672" y2="369" stroke="#2563eb" stroke-width="2" marker-start="url(#arrow-blue-border-left)" marker-end="url(#arrow-blue-border-right)"/>
  <line x1="688" y1="369" x2="912" y2="369" stroke="#2563eb" stroke-width="2" marker-start="url(#arrow-blue-border-left)" marker-end="url(#arrow-blue-border-right)"/>
  <line x1="928" y1="369" x2="942" y2="369" stroke="#2563eb" stroke-width="2" marker-start="url(#arrow-blue-border-left)" marker-end="url(#arrow-blue-border-right)"/>
  <rect x="682" y="352" width="236" height="22" rx="4" fill="#fafafa"/>
  <text x="800" y="367" text-anchor="middle" font-size="13" font-weight="700" fill="#1d4ed8">VPC | SSM / SSH / NAT (nic0)</text>

  <!-- L1: br-default to GRE -->
  <line x1="658" y1="503" x2="682" y2="503" stroke="#dc2626" stroke-width="2" marker-start="url(#arrow-red-border-left)" marker-end="url(#arrow-red-border-right)"/>
  <line x1="918" y1="503" x2="1002" y2="503" stroke="#dc2626" stroke-width="2" marker-start="url(#arrow-red-border-left)" marker-end="url(#arrow-red-border-right)"/>

  <!-- L2: Ubuntu inner guests to L2 box (lines in gap; arrow tips on box borders) -->
  <line x1="508" y1="759" x2="682" y2="759" stroke="#dc2626" stroke-width="2" marker-start="url(#arrow-red-border-left)" marker-end="url(#arrow-red-border-right)"/>
  <line x1="918" y1="759" x2="1092" y2="759" stroke="#dc2626" stroke-width="2" marker-start="url(#arrow-red-border-left)" marker-end="url(#arrow-red-border-right)"/>

  <!-- L0: VPC fabric + transport ENIs (purple rides on blue VPC underlay) -->
  <line x1="688" y1="872" x2="912" y2="872" stroke="#2563eb" stroke-width="2" marker-start="url(#arrow-blue-border-left)" marker-end="url(#arrow-blue-border-right)"/>
  <rect x="682" y="828" width="236" height="36" rx="4" fill="#fafafa" fill-opacity="0.95"/>
  <text x="800" y="844" text-anchor="middle" font-size="13" font-weight="700" fill="#1d4ed8">172.31.0.0/16</text>
  <text x="800" y="860" text-anchor="middle" font-size="13" font-weight="700" fill="#1d4ed8">VPC routes transport /32</text>

  <line x1="688" y1="900" x2="912" y2="900" stroke="#7c3aed" stroke-width="2" marker-start="url(#arrow-purple-border-left)" marker-end="url(#arrow-purple-border-right)"/>
  <text x="800" y="948" text-anchor="middle" font-size="17" font-weight="700" fill="#4338ca">L0 - transport ENIs reachable across VPC</text>
  <text x="800" y="966" text-anchor="middle" font-size="15" font-weight="600" fill="#4338ca">172.31.48.10 &lt;-&gt; 172.31.48.26</text>

  <text x="800" y="988" text-anchor="middle" font-size="16" fill="#64748b">Each column is one metal host. Same libvirt/Hyper-V names are per-host, not shared.</text>
</svg>
